 <svg
    width="67"
    height="30"
    fill="none"
    xmlns="http://www.w3.org/2000/svg"
    class="max-w-min lg:min-w-[200px]"
  >
    <path d="M0 0h27.169v6.088H-.002V0Z" fill="#A3C1C1" />
    <path
      d="M66.376 16.752V0H33.188v6.088h27.169v5.423a.423.423 0 0 1-.42.426H33.189V29.96h6.018V18.025h17.164l3.986 11.936h6.019L62.39 18.025h2.728c.695 0 1.258-.57 1.258-1.273ZM0 13.208v15.48c0 .703.563 1.272 1.258 1.272h25.91v-6.088H6.44a.423.423 0 0 1-.42-.425V18.45c0-.235.188-.425.42-.425h20.73v-6.088H1.258c-.695 0-1.258.57-1.258 1.272Z"
      fill="#326372"
    />
  </svg>